<svg width="16" height="16" viewBox="0 0 16 16" fill="none" xmlns="http://www.w3.org/2000/svg">
<path fill-rule="evenodd" clip-rule="evenodd" d="M4.82402 0.853333C5.07229 0.349867 5.60782 0 6.2267 0H9.7733C10.3922 0 10.9268 0.349867 11.176 0.853333C11.7816 0.858453 12.2541 0.884907 12.6762 1.04363C13.18 1.2333 13.6182 1.55564 13.9405 1.97376C14.2659 2.39531 14.4193 2.93547 14.6286 3.67872L15.2865 6.00149L15.5347 6.71915L15.556 6.74475C16.3549 7.72949 15.9745 9.19381 15.2138 12.1216C14.7297 13.9844 14.4885 14.9154 13.7668 15.4581C13.045 16 12.0476 16 10.0526 16H5.94741C3.95245 16 2.95497 16 2.23324 15.4581C1.5115 14.9154 1.26945 13.9844 0.786225 12.1216C0.0254804 9.19381 -0.354892 7.72949 0.443978 6.74475L0.465258 6.71915L0.71352 6.00149L1.37141 3.67872C1.58155 2.93547 1.73494 2.39445 2.05945 1.97291C2.38195 1.5551 2.82011 1.23306 3.32381 1.04363C3.74586 0.884907 4.21756 0.8576 4.82402 0.853333ZM4.8258 2.13589C4.23884 2.14187 4.00299 2.1632 3.80792 2.23659C3.53658 2.33871 3.30059 2.51231 3.12698 2.73749C2.97093 2.93973 2.87872 3.22219 2.62159 4.13269L2.1162 5.91531C3.02058 5.76 4.25657 5.76 5.94652 5.76H10.0526C11.7434 5.76 12.9785 5.76 13.8829 5.9136L13.3784 4.13099C13.1213 3.22048 13.0291 2.93803 12.873 2.73579C12.6994 2.5106 12.4634 2.33701 12.1921 2.23488C11.997 2.16149 11.7612 2.14016 11.1742 2.13419C11.0483 2.3892 10.8499 2.60465 10.6019 2.75553C10.354 2.90642 10.0667 2.98656 9.7733 2.98667H6.2267C5.93344 2.98664 5.64619 2.90662 5.39824 2.75589C5.1503 2.60516 4.95182 2.39075 4.8258 2.13589Z" fill="#919199"/>
</svg>
